<?xml version="1.0" encoding="UTF-8"?><svg id="_圖層_2" xmlns="http://www.w3.org/2000/svg" viewBox="0 0 22.43 21.53"><defs><style>.cls-1{fill:#a67c52;}</style></defs><g id="_設計"><path class="cls-1" d="M20.89,9.22H5.27l6.59-6.59c.6-.6.6-1.58,0-2.18-.6-.6-1.58-.6-2.18,0L.45,9.67c-.07.07-.14.15-.19.23-.01.02-.02.04-.03.06-.04.07-.08.14-.11.21-.01.03-.02.06-.03.08-.02.07-.05.13-.06.2-.02.1-.03.2-.03.31s.01.21.03.3c.01.07.04.14.06.2,0,.03.01.06.03.08.03.07.07.14.11.21.01.02.02.04.03.06.06.08.12.16.19.23l9.22,9.22c.3.3.7.45,1.09.45s.79-.15,1.09-.45c.6-.6.6-1.58,0-2.18l-6.59-6.59h15.62c.85,0,1.54-.69,1.54-1.54s-.69-1.54-1.54-1.54Z"/></g></svg>