<?xml version="1.0" encoding="UTF-8"?><svg id="_圖層_2" xmlns="http://www.w3.org/2000/svg" viewBox="0 0 22.43 21.53"><defs><style>.cls-1{fill:#fff;}</style></defs><g id="_設計"><path class="cls-1" d="M22.43,10.77h0s0,0,0,0c0-.2-.04-.39-.11-.56,0,0,0-.02,0-.02-.08-.19-.19-.36-.34-.51L12.76.45c-.6-.6-1.58-.6-2.18,0-.6.6-.6,1.58,0,2.18l6.59,6.59H1.54c-.85,0-1.54.69-1.54,1.54s.69,1.54,1.54,1.54h15.62l-6.59,6.59c-.6.6-.6,1.58,0,2.18.3.3.7.45,1.09.45s.79-.15,1.09-.45l9.22-9.22c.14-.14.26-.32.34-.51,0,0,0-.02,0-.02.07-.18.11-.36.11-.56Z"/></g></svg>