<?xml version="1.0" encoding="UTF-8"?><svg id="_圖層_2" xmlns="http://www.w3.org/2000/svg" xmlns:xlink="http://www.w3.org/1999/xlink" viewBox="0 0 35 35"><defs><style>.cls-1{fill:none;}.cls-2{filter:url(#drop-shadow-1);}.cls-3{fill:#fff;}</style><filter id="drop-shadow-1" x="-7.91" y="-6.81" width="51" height="48" filterUnits="userSpaceOnUse"><feOffset dx="0" dy="0"/><feGaussianBlur result="blur" stdDeviation="3"/><feFlood flood-color="#003518" flood-opacity=".5"/><feComposite in2="blur" operator="in"/><feComposite in="SourceGraphic"/></filter></defs><g id="_設計"><rect class="cls-1" width="35" height="35"/><g class="cls-2"><path class="cls-3" d="M1.67,17.51c.26-.3.49-.63.77-.9,1.98-1.9,3.96-3.8,5.95-5.69,1.52-1.45,3.05-2.89,4.57-4.34,1.01-.96,2.01-1.94,3.03-2.89.9-.84,2.15-.84,3.05.01,1.54,1.46,3.06,2.93,4.59,4.4.03.03.07.05.14.11,0-.14.02-.24.02-.33,0-1.27,0-2.53,0-3.8,0-.72.19-.94.81-.94,1.14,0,2.28,0,3.41,0,.58,0,.79.24.79.91,0,2.89,0,5.78,0,8.67,0,.24.07.39.22.54,1.3,1.23,2.6,2.46,3.89,3.69.16.16.28.37.42.56v.41c-.41.58-.82,1.17-1.24,1.74-.36.5-.68.54-1.12.12-1.18-1.12-2.35-2.25-3.53-3.37-1.03-.99-2.07-1.98-3.11-2.96-1.07-1.02-2.14-2.04-3.2-3.06-1.15-1.1-2.3-2.2-3.45-3.31-.13-.13-.23-.13-.37,0-1.05,1.01-2.1,2.02-3.16,3.03-1.05,1-2.1,2-3.14,3-1.05,1.01-2.11,2.01-3.16,3.02-1.18,1.12-2.35,2.25-3.53,3.37-.14.13-.27.27-.41.38-.33.27-.63.25-.9-.1-.46-.61-.9-1.24-1.35-1.87v-.41Z"/><path class="cls-3" d="M20.01,31.92v-8.6c-.11,0-.19-.01-.28-.01-1.49,0-2.98,0-4.48,0-.22,0-.28.07-.28.32,0,2.64,0,5.28,0,7.92v.41h-.3c-2.36,0-4.72,0-7.08,0-.91,0-1.41-.57-1.41-1.61,0-3.47,0-6.94,0-10.41,0-.26.08-.42.26-.58,1.75-1.64,3.48-3.29,5.22-4.93,1.53-1.45,3.07-2.89,4.6-4.34.41-.38.81-.77,1.23-1.17.62.58,1.22,1.15,1.83,1.72,1.76,1.66,3.52,3.33,5.28,4.99,1.35,1.28,2.7,2.55,4.05,3.84.08.08.15.24.15.37,0,3.56.01,7.11,0,10.67,0,.86-.52,1.45-1.26,1.46-2.46.01-4.92,0-7.38,0-.03,0-.07,0-.15-.02Z"/></g></g></svg>