<?xml version="1.0" encoding="UTF-8"?><svg id="_圖層_2" xmlns="http://www.w3.org/2000/svg" viewBox="0 0 653.52 209.9"><defs><style>.cls-1{fill:#2d3a25;}</style></defs><g id="_設計"><path class="cls-1" d="M10.63,49.24c-.86,2.4-2.13,4.77-3.57,6.88.98.93,3.28,3.33,3.86,3.97l-.81,1.28c-.66-.86-2.42-2.82-3.51-4.03v14.27h-1.35v-13.09c-1.44,1.73-2.97,3.23-4.44,4.38-.17-.35-.55-.99-.81-1.25,3.31-2.5,6.97-6.88,8.87-11.49H1.01v-1.44h8.56l.29-.1.78.61ZM5.7,48.03c-.46-1.18-1.38-3.17-2.22-4.58l1.12-.51c.84,1.44,1.79,3.3,2.25,4.48l-1.15.61ZM26.24,44.38v1.38h-15.09v-1.38h15.09ZM11.26,57.88h14.75v13.69h-1.32v-1.5h-12.13v1.63h-1.3v-13.82ZM12.56,59.26v3.97h5.24v-3.97h-5.24ZM17.8,68.7v-4.13h-5.24v4.13h5.24ZM24.66,48.44v6.94h-11.87v-6.94h11.87ZM23.33,49.79h-9.25v4.29h9.25v-4.29ZM24.69,59.26h-5.59v3.97h5.59v-3.97ZM24.69,68.7v-4.13h-5.59v4.13h5.59Z"/><path class="cls-1" d="M15.12,86.61c2.02,8.03,5.96,14.59,11.9,17.37-.35.35-.81.93-1.04,1.41-6.11-3.17-10.08-9.98-12.21-18.56-.58,3.77-1.67,7.71-3.89,11.17l.78-.64c2.16,1.89,4.78,4.58,6.02,6.34l-1.15,1.02c-1.18-1.73-3.69-4.51-5.88-6.37-1.82,2.75-4.41,5.18-8.01,6.94-.2-.42-.63-.93-1.01-1.25,7.86-3.68,10.72-10.78,11.72-17.44H1.15v-1.54h11.44c.37-3.26.37-6.34.4-8.73h1.44c-.03,2.43-.06,5.5-.43,8.73h12.27v1.54h-11.15Z"/><path class="cls-1" d="M89.23,106.58c-.8,1.79-1.57,3.51-2.31,5.17-.74,1.66-.92,2.49-.55,2.49s1.48-.49,3.32-1.48c7.14-3.57,11.45-5.36,12.93-5.36,1.6,0,2.65.49,3.14,1.48.49.99.31,2.22-.55,3.69-.62.99-1.97,1.85-4.06,2.59-4.31,1.48-6.83,2.65-7.57,3.51-.37.37-.52.68-.46.92.06.25.46.62,1.2,1.11.86.37,1.32,1.23,1.39,2.59.06,1.36-.06,2.99-.37,4.89-.31,1.91-.46,3.36-.46,4.34-.12,2.59,0,4.1.37,4.53.37.43,1.35.22,2.96-.65.98-.49,2.89-1.26,5.73-2.31,2.83-1.05,5.33-2.06,7.48-3.05,2.15-.98,3.6-1.85,4.34-2.59,1.85-1.72,4.16-2.31,6.93-1.75,2.77.55,4.03,1.94,3.79,4.16-.74,1.36-3.17,2.65-7.3,3.88-4.13,1.23-6.68,2.28-7.67,3.14-.99.62-3.51,1.73-7.57,3.33-4.06,1.6-6.71,2.9-7.94,3.88-1.36.74-2.22,1.73-2.59,2.96-.37,1.23-.55,3.88-.55,7.94.12,2.22-.09,5.76-.65,10.62-.55,4.87-.71,8.28-.46,10.25.25,1.85.52,5.73.83,11.64.31,5.91.58,9.73.83,11.45.25,2.83.21,4.92-.09,6.28-.31,1.35-1.08,2.4-2.31,3.14-1.73.86-3.36.65-4.9-.65-1.54-1.29-2-2.86-1.39-4.71.62-5.17.68-9.11.19-11.82-.62-3.45-.99-8.28-1.11-14.5-.12-6.22.06-10.25.55-12.1.37-1.35.55-4.06.55-8.13s-.19-6.28-.55-6.65c-.74-.37-1.66-.28-2.77.28-1.11.55-2.34,1.26-3.69,2.12-1.36.86-2.47,1.42-3.33,1.66-9.97,5.79-18.97,9.86-26.97,12.19-3.08,1.23-5.48,1.11-7.2-.37-1.11-.98-1.39-1.85-.83-2.59.55-.74,2.18-1.78,4.9-3.14,1.72-.86,5.73-2.52,12.01-4.99,6.28-2.46,11.02-4.8,14.22-7.02,1.35-.98,3.39-2.13,6.1-3.42,2.71-1.29,4.8-2.18,6.28-2.68,1.35-.37,2.34-1.08,2.96-2.13.62-1.04.92-2.68.92-4.89,0-2.96.55-6.16,1.66-9.61.86-2.95.83-4.46-.09-4.52-.92-.06-2.37.65-4.34,2.12-8.25,4.8-14.78,8.01-19.58,9.61-1.48.74-2.47,1.14-2.96,1.2-.49.06-1.17-.09-2.03-.46-1.85-.74-2.68-1.66-2.49-2.77.19-1.11,1.32-2.15,3.42-3.14,5.54-2.95,8.5-4.62,8.87-4.99,1.48-.98,1.6-1.6.37-1.85-.99-.37-1.54-1.32-1.66-2.86-.12-1.54.31-3.29,1.29-5.26.49-.49.92-3.11,1.29-7.85.37-4.74.61-7.3.74-7.67.37-2.09-.68-2.65-3.14-1.66-.37.12-1.48.74-3.32,1.85-.74.62-4.06,2.03-9.98,4.25-2.1,1.11-4,1.11-5.73,0-1.73-1.11-2.16-2.65-1.29-4.62.49-.37,2.46-1.17,5.91-2.4,3.45-1.23,5.42-2.09,5.91-2.59.86-.49,2.43-1.29,4.71-2.4,2.28-1.11,4.03-2.22,5.26-3.32,1.23-1.11,2.28-2.71,3.14-4.8,1.48-2.59,2.71-6.96,3.69-13.12.49-2.83.37-4.43-.37-4.8-.49-.12-1.75.12-3.79.74-2.03.62-3.48,1.17-4.34,1.66-1.48,1.11-3.76,1.94-6.84,2.5-3.08.55-4.99.53-5.73-.09-.74-.74-.83-1.51-.28-2.31.55-.8,1.45-1.2,2.68-1.2.86,0,1.66-.43,2.4-1.29,1.97-2.09,5.36-3.88,10.16-5.36,1.11-.61,2.28-1.11,3.51-1.48,1.23-.37,2.06-.61,2.49-.74.43-.12.86-.4,1.29-.83.43-.43.68-.98.74-1.66.06-.67.09-1.69.09-3.05,0-2.09.31-3.51.92-4.25,1.11-1.11,2.4-1.36,3.88-.74,1.48.62,2.09,1.73,1.85,3.32.12.49.09.99-.09,1.48-.18.49-.12.8.19.92.31.12.46.25.46.37s.25.12.74,0c.49-.12.8-.21.92-.28.12-.06.49-.21,1.11-.46.61-.24,1.04-.43,1.29-.55,1.97-.98,4.37-1.78,7.2-2.4,2.22-.49,3.69-.61,4.43-.37.74.25,1.11.99,1.11,2.22,0,1.11-.37,1.97-1.11,2.59-.74.62-2.22,1.29-4.43,2.03-1.48.37-2.65.77-3.51,1.2-.86.43-1.76.92-2.68,1.48-.92.55-1.82,1.01-2.68,1.38-1.48.25-2.62,1.63-3.42,4.16-.8,2.53-1.48,5.36-2.03,8.5-.55,3.14-1.2,5.2-1.94,6.19-.86,2.22-.43,3.08,1.29,2.59,1.11-.37,2.34-1.04,3.69-2.03,1.35-.86,4.86-3.02,10.53-6.47,5.66-3.45,9.67-5.73,12.01-6.83.61,0,1.29.31,2.03.92.74.62,1.11,1.17,1.11,1.66.25.86-.16,1.73-1.2,2.59-1.05.86-2.31,1.7-3.79,2.5-1.48.8-2.4,1.32-2.77,1.57-2.1,1.6-5.02,3.63-8.78,6.1-3.76,2.47-6.74,4.5-8.96,6.1-3.32,2.22-5.48,3.94-6.47,5.17-.99,1.23-1.48,2.84-1.48,4.8,0,1.85-.8,7.88-2.4,18.1,0,.99.55.92,1.66-.19.25-.25.49-.49.74-.74,4.68-6.9,8.19-14.22,10.53-21.98,0-.37.06-.74.18-1.11.86-3.08,1.6-4.96,2.22-5.63.61-.68,1.78-.71,3.51-.09.86.62,1.02,2.4.46,5.36-.55,2.96-1.57,6.1-3.05,9.42-1.11,2.22-1.66,3.57-1.66,4.06.12.12-.22,1.08-1.02,2.86Z"/><path class="cls-1" d="M156.91,111.66c-.92-.98-.99-2.18-.19-3.6.8-1.41,2.06-2.55,3.79-3.42,1.85-1.11,3.35-1.2,4.53-.28,1.17.92,4.59.4,10.25-1.57,5.66-1.97,9.73-4,12.19-6.1,1.11-.74,2.19-1.2,3.23-1.39,1.05-.19,1.88-.03,2.49.46.25.86.4,1.63.46,2.31.06.68-.03,1.36-.28,2.03-.25.68-.49,1.23-.74,1.66-.25.43-.65,1.05-1.2,1.85-.55.8-1.02,1.45-1.39,1.94-.25.62-.83,1.57-1.75,2.86-.92,1.29-1.54,2.4-1.85,3.33-.31.92-.28,2,.09,3.23.37.86.52,1.54.46,2.03-.06.49-.4,1.48-1.02,2.96-.74,1.85-.43,3.6.92,5.26,1.35,1.66,4.19,3.85,8.5,6.56.86.62,4.37,2.62,10.53,6.01,6.16,3.39,10.22,5.94,12.19,7.67.86.74,1.26,1.63,1.2,2.68-.06,1.05-.53,1.88-1.39,2.49-.86.74-1.66.99-2.4.74-.74-.24-2.4-1.23-4.99-2.95-2.34-1.48-5.36-3.23-9.05-5.27-3.69-2.03-7.14-4.03-10.35-6-3.08-1.97-4.8-2.77-5.17-2.4-.25.12-.31,2.99-.19,8.59.12,5.61.31,9.39.55,11.36.74,4.93.58,12.38-.46,22.35-1.05,9.98-2.31,16.26-3.79,18.84-1.97,3.33-3.85,4.31-5.63,2.96-1.79-1.36-2-3.94-.65-7.76.49-1.35.92-2.34,1.29-2.96,1.23-1.35,2.15-6.77,2.77-16.26.61-9.48.49-16.69-.37-21.61-.12-.12-.18-4.31-.18-12.56-.12-4.68-.49-6.96-1.11-6.84-.25,0-.55.25-.92.74-.74,1.36-3.02,5.88-6.84,13.58-3.82,7.7-6.53,13.02-8.13,15.98-.99,1.36-2.74,4.74-5.27,10.16-2.52,5.42-4.28,8.75-5.26,9.98-2.1,1.23-3.67,1.14-4.71-.28-1.05-1.41-.77-3.35.83-5.82.12-.25.89-2,2.31-5.27,1.41-3.26,2.55-5.45,3.42-6.56,1.35-1.97,2.55-3.85,3.6-5.63,1.05-1.78,1.78-3.2,2.22-4.25.43-1.04,1.08-2.55,1.94-4.53.86-1.97,1.6-3.57,2.22-4.8,11.7-23.03,17.24-34.85,16.63-35.47-.99.12-3.85.86-8.59,2.22-4.74,1.36-7.92,1.97-9.51,1.85-2.59.25-4.34-.12-5.26-1.11ZM190.99,82.66c-.86,2.1-2.22,2.59-4.06,1.48-1.11-.37-3.08-.8-5.91-1.29-2.83-.49-5.42-.95-7.76-1.38-2.34-.43-3.63-.83-3.88-1.2-.49-.37-.71-1.38-.65-3.05.06-1.66.28-2.86.65-3.6.49-.61.98-.92,1.48-.92s1.72.43,3.69,1.29c1.23.74,3.72,1.51,7.48,2.31,3.76.8,6.31,1.51,7.67,2.12,1.72.74,2.15,2.16,1.29,4.25ZM235.62,70.75c1.41-.31,2.92-.83,4.53-1.57,1.97-.98,3.79-1.51,5.45-1.57,1.66-.06,2.8.4,3.42,1.39.74,1.23.71,2.22-.09,2.95-.8.74-2.22,1.42-4.25,2.03-2.03.62-3.3,1.05-3.79,1.29-8.75,3.69-16.26,5.42-22.54,5.17-3.2-.12-4.99-.55-5.36-1.29-1.11-1.35-.92-2.83.55-4.43.49-.74,1.08-1.17,1.75-1.29.68-.12,2.68-.19,6-.19,4.31,0,7.63-.43,9.97-1.29,1.48-.49,2.92-.89,4.34-1.2ZM243.01,179.37c-.55-.31-.99-.46-1.29-.46s-1.08.22-2.31.65c-1.23.43-2.53.83-3.88,1.2-5.42,1.85-8.99,2.4-10.71,1.66-.62-.24-1.23-1.48-1.85-3.69l-1.48,1.48c-.99.99-1.75,1.48-2.31,1.48s-1.2-.37-1.94-1.11c-.74-.74-1.23-2.46-1.48-5.17-.25-2.71-.49-8.37-.74-17-.37-8.74-.46-14.38-.28-16.9.19-2.52.77-4.09,1.75-4.71,1.23-.98,2.4-1.14,3.51-.46,1.11.68,1.66,1.94,1.66,3.79,0,.74.06,1.26.18,1.57.12.31.31.46.55.46s.49-.06.74-.19c.24-.12.65-.37,1.2-.74.55-.37,1.08-.68,1.57-.92,4.55-2.96,8.5-5.2,11.82-6.74,3.32-1.54,7.88-3.35,13.67-5.45,5.91-.74,9.94-.43,12.1.92,2.15,1.36,3.72,4.62,4.71,9.79.37,2.47.49,4.8.37,7.02-.13,2.22-.62,7.45-1.48,15.7-.62,4.93-1.27,8.62-1.94,11.08-.68,2.47-1.82,4.99-3.42,7.57-1.6,3.08-4.16,4.74-7.67,4.99-3.51.25-6.44-.98-8.77-3.69-.99-1.11-1.75-1.81-2.31-2.12ZM234.97,168.84c1.6-3.26,1.85-5.94.74-8.04-.25,0-2.03.65-5.36,1.94-3.32,1.29-5.42,2.19-6.28,2.68-.49.25-.74,2.4-.74,6.47,0,.25-.06.56-.18.92,0,3.2.18,4.8.55,4.8.12,0,.43-.25.92-.74.74-.61,1.41-1.05,2.03-1.29,1.6-1.11,2.71-1.66,3.32-1.66,1.72-.12,3.39-1.82,4.99-5.08ZM252.34,114.07c-1.48,1.36-4.19,3.32-8.13,5.91-1.73,1.11-3.08,1.97-4.06,2.59-.99.62-2.03,1.14-3.14,1.57-1.11.43-1.85.68-2.22.74-.37.06-1.36.22-2.96.46-1.6.25-2.9.49-3.88.74-1.23.12-2.06-.15-2.49-.83-.43-.68-.65-2.31-.65-4.9-.12-.86-.06-2.86.18-6,.25-3.14.37-5.73.37-7.76s-.25-3.66-.74-4.9c-2.22-3.57-1.79-6.9,1.29-9.98,1.23-.86,2.31-1.02,3.23-.46.92.55,1.51,1.69,1.75,3.42.37,2.1,1.41,2.4,3.14.92,2.71-2.22,5.66-3.32,8.87-3.32,6.28,0,8.19,4.19,5.73,12.56-.74,2.59-.99,3.88-.74,3.88.12,0,.37-.19.74-.55.86-.74,2.15-.83,3.88-.28,1.72.55,2.4,1.45,2.03,2.68,0,.99-.74,2.16-2.22,3.51ZM232.85,144.08c-.55.18-1.69.9-3.42,2.13-1.85,1.36-3.2,2.56-4.06,3.6-.86,1.05-1.48,2.37-1.85,3.97-.37,1.6-.31,2.65.18,3.14.49.62,1.85.49,4.06-.37.25,0,.89-.21,1.94-.65,1.04-.43,1.82-.74,2.31-.92.49-.18,1.14-.49,1.94-.92.8-.43,1.39-.86,1.75-1.29.37-.43.61-.89.74-1.39-.12-.98-.4-2.25-.83-3.79-.43-1.54-.83-2.5-1.2-2.86-.49-.61-1.02-.83-1.57-.65ZM242.91,100.21c-1.97-.74-5.11,1.23-9.42,5.91-.25,0-.49.9-.74,2.68-.25,1.79-.37,3.51-.37,5.17s.25,2.37.74,2.13c1.23.49,2.83-.68,4.8-3.51,2.71-4.31,4.25-7.7,4.62-10.16l.37-2.22ZM242.27,145.75c.67,1.91,1.26,2.93,1.75,3.05.37,0,1.41-.55,3.14-1.66,1.72-1.11,3.08-2.15,4.06-3.14,1.11-1.23,2.34-1.41,3.69-.56.98.74,1.41,1.57,1.29,2.49-.12.92-1.05,2.13-2.77,3.6-1.73,1.48-3.17,2.62-4.34,3.42-1.17.8-2.25,1.51-3.23,2.13-.99.74-1.57,1.36-1.76,1.85-.18.49-.46,1.85-.83,4.06-.37,3.2-.8,5.48-1.29,6.84-.62,1.73-.62,2.68,0,2.86.61.18,2.46-.09,5.54-.83,1.11-.37,2.71-.74,4.8-1.11,2.09-.37,3.66-.8,4.71-1.29,1.05-.49,1.88-1.23,2.5-2.22.74-1.85,1.35-6.65,1.85-14.41.49-7.76-.06-12.68-1.66-14.78-.62-.74-2.16-1.04-4.62-.92-3.45,0-7.02.92-10.71,2.77-1.48.74-2.37,1.26-2.68,1.57-.31.31-.46.83-.46,1.57,0,1.23.34,2.8,1.02,4.71ZM254.55,178.35c1.97-1.48,2.52-2.4,1.66-2.77-.74-.37-2.28-.12-4.62.74-1.73.49-2.74.86-3.05,1.11-.31.25-.22.68.28,1.29,1.11,1.85,3.02,1.72,5.73-.37Z"/><path class="cls-1" d="M311,169.11c1.72-3.2,2.59-4.86,2.59-4.99,0-.74-1.42-.68-4.25.19-2.47.74-4.46.92-6,.55-1.54-.37-2.25-1.66-2.13-3.88,0-3.2,1.41-4.8,4.25-4.8,1.85,0,4.68-.56,8.5-1.66,3.82-1.11,6.1-2.09,6.83-2.96.61-.61,1.11-2.09,1.48-4.43,1.97-7.76,4.07-12.13,6.28-13.12,1.85-.49,3.11-.15,3.79,1.02.68,1.17.46,2.99-.65,5.45-1.36,4.06-1.29,5.97.19,5.73,1.72-.24,3.82-1.91,6.28-4.99.37-.49.62-.86.74-1.11.24-.98.58-1.66,1.01-2.03.43-.37,1.2-.55,2.31-.55,2.83,0,4.25,1.48,4.25,4.43,0,.86-.19,1.57-.55,2.12-.37.56-1.36,1.57-2.96,3.05-.86.99-3.14,2.74-6.83,5.26-3.69,2.53-5.79,4.53-6.28,6-1.23,2.84-.92,4.25.92,4.25.98,0,2.65,1.11,4.99,3.32,2.34,2.22,4.43,4.5,6.28,6.83,1.85,2.34,2.65,3.57,2.4,3.69,0,.62.37,1.17,1.11,1.66.74.49,1.48.74,2.22.74.98,0,1.69.25,2.12.74.43.49.71,1.66.83,3.51.37,3.69-.49,5.79-2.59,6.28-1.23.37-2.37.06-3.42-.92-1.05-.98-2.74-3.26-5.08-6.84-1.36-2.09-3.27-4.4-5.73-6.93-2.46-2.52-4-3.79-4.62-3.79-.49,0-.77.49-.83,1.48-.06.99-.09,4.06-.09,9.24,0,10.96-.92,17.86-2.77,20.69-1.48,2.34-3.08,2.65-4.8.92-.74-.49-1.14-1.14-1.2-1.94-.06-.8-.16-3.3-.28-7.48,0-5.66.24-9.11.74-10.35.86-3.32,1.04-7.39.55-12.19-.37-3.08-1.11-2.96-2.22.37-1.73,4.56-3.91,8.68-6.56,12.38-2.65,3.69-4.83,5.79-6.56,6.28-1.97.37-3.48-.09-4.53-1.38-1.05-1.29-.89-2.92.46-4.89.37-.86,1.66-2.37,3.88-4.53,2.22-2.15,3.39-3.91,3.51-5.26-.12-.25.67-1.97,2.4-5.17ZM375.19,95.22c-1.17.99-2.49,1.54-3.97,1.66-1.73.13-2.59-.49-2.59-1.85,0-.74-.31-1.29-.92-1.66-.62-.37-2.1-.98-4.43-1.85-2.83-.86-4.87-1.91-6.1-3.14-.99-.86-1.6-1.32-1.85-1.38-.25-.06-.49.16-.74.65-.49.62-.62,1.42-.37,2.4.12.99.19,5.11.19,12.38.12,5.05.12,8.22,0,9.51-.12,1.29-.43,2.49-.92,3.6-2.34,3.57-4.37,4.74-6.1,3.51-1.11-.61-2.28-2.15-3.51-4.62-1.36-2.59-1.94-4.37-1.75-5.36.19-.98,1.2-1.48,3.05-1.48,1.23,0,1.91-.43,2.03-1.29.25-1.11.12-6.03-.37-14.78-.62-3.32-1.2-4.96-1.75-4.89-.56.06-1.57,1.38-3.05,3.97-1.48,2.71-4,6.68-7.57,11.91-3.57,5.24-5.85,8.34-6.84,9.33-3.45,3.57-5.85,5.17-7.2,4.8-1.36-.37-2.12-1.08-2.31-2.12-.18-1.05.21-2.74,1.2-5.08.61-1.72,1.17-2.86,1.66-3.42.49-.55,1.29-1.2,2.4-1.94,1.72-.86,4.4-4.34,8.04-10.44,3.63-6.1,5.39-9.57,5.26-10.44-.62.12-1.79.4-3.51.83-1.73.43-3.32.86-4.8,1.29-1.48.43-2.65.77-3.51,1.02-1.36.74-2.71.74-4.06,0-1.36-.74-1.91-1.91-1.66-3.51,0-.24.06-.52.18-.83.12-.31.34-.58.65-.83.31-.24.58-.49.83-.74.24-.25.58-.49,1.02-.74.43-.25.8-.43,1.11-.56.31-.12.74-.28,1.29-.46.56-.19.95-.31,1.2-.37.24-.06.65-.21,1.2-.46.56-.25.89-.37,1.02-.37,9.11-2.95,14.72-5.23,16.81-6.83.86-.61,1.32-1.32,1.39-2.13.06-.8-.03-1.81-.28-3.05-.25-1.23-.31-2.34-.19-3.33-.25-2.34.37-4.83,1.85-7.48,1.48-2.65,3.02-3.97,4.62-3.97,1.35-.24,2.18-.09,2.49.46.31.55.34,1.88.09,3.97-.86,6.04-.92,9.18-.19,9.42.49.25,2.46-.8,5.91-3.14,3.32-2.34,5.39-3.88,6.19-4.62.8-.74,1.32-1.6,1.57-2.59,0-1.35.92-2.46,2.77-3.32,1.85-.86,3.57-.98,5.17-.37,1.72.62,2.34,1.73,1.85,3.32-1.6,2.1-3.67,4.25-6.19,6.47-2.53,2.22-5.48,4.68-8.87,7.39-3.39,2.71-5.76,4.68-7.11,5.91-1.36,1.23-1.85,3.51-1.48,6.83.37,3.45,1.91,4.5,4.62,3.14,1.23-.74,3.39-.65,6.47.28,3.08.92,5.88,2.22,8.41,3.88,2.52,1.66,3.66,3.11,3.42,4.34,0,1.11-.59,2.16-1.75,3.14ZM320.6,161.36c-.62-.12-.99,0-1.11.37.25.74.68.92,1.29.55.12-.12.19-.24.19-.37,0-.24-.12-.43-.37-.55ZM406.32,127.74c.86.99,1.11,2.22.74,3.69-.12.99-.53,1.75-1.2,2.31-.68.55-2.06,1.14-4.16,1.75-7.76,2.59-11.82,5.11-12.19,7.57-.62,4.43-1.02,8.65-1.2,12.65-.19,4-.22,12.53-.09,25.59,0,10.47-.16,16.81-.46,19.03-.31,2.22-1.2,3.88-2.68,4.99-2.96,1.35-4.87-.49-5.73-5.54-.86-5.05-.8-8.5.19-10.34.24-.49.46-3.88.65-10.16.19-6.28.15-9.91-.09-10.9-.49-1.6-1.54-.98-3.14,1.85-.62.99-2.06,3.08-4.34,6.28-2.28,3.2-3.79,5.48-4.53,6.83-2.34,4.19-4.43,6.28-6.28,6.28s-2.99-.77-3.42-2.31c-.43-1.54.09-3.23,1.57-5.08.49-.61,1.57-2.37,3.23-5.26,1.66-2.89,2.8-4.65,3.42-5.27.37,0,1.17-1.11,2.4-3.32,1.23-2.22,2.61-4.65,4.16-7.3,1.54-2.65,2.68-4.4,3.42-5.26.98-.37,2.06-1.78,3.23-4.25,1.17-2.46,1.51-4,1.02-4.62-.62-.49-1.66-.49-3.14,0-1.48.49-3.17,1.2-5.08,2.13-1.91.92-3.23,1.51-3.97,1.75-.62.12-1.57.49-2.86,1.11-1.29.62-2.4,1.11-3.32,1.48-.92.37-1.97.65-3.14.83-1.17.19-2.06-.15-2.68-1.02-1.11-1.35-.86-3.08.74-5.17.24-1.11,2.06-2.25,5.45-3.42,3.39-1.17,5.26-1.94,5.63-2.31.86-.49,3.08-1.41,6.65-2.77,3.2-1.23,5.2-2.25,6-3.05.8-.8,1.39-2.25,1.75-4.34.98-6.4,1.48-10.16,1.48-11.27.61-3.94,2.03-7.08,4.25-9.42,2.09-2.09,4.06-1.54,5.91,1.66.37.62.49,1.14.37,1.57-.12.43-.56,1.39-1.29,2.86-.74.99-1.29,2.9-1.66,5.73-.37,2.83-.49,5.36-.37,7.57,0,.49.8.34,2.4-.46,1.6-.8,3.35-1.72,5.26-2.77,1.91-1.04,3.05-1.51,3.42-1.39,1.6,0,2.83.49,3.69,1.48ZM408.54,167.64c1.6,1.36,5.36,4.8,11.27,10.34,1.48,1.48,3.29,3.08,5.45,4.8,2.15,1.73,3.79,3.39,4.89,4.99,3.57,3.94,5.54,6.4,5.91,7.39.24.74.09,1.63-.46,2.68-.55,1.04-1.26,1.75-2.13,2.13-1.97.86-3.69.12-5.17-2.22-1.11-1.48-5.42-5.85-12.93-13.12-7.51-7.27-11.89-12.07-13.12-14.41-.86-1.85-1.91-3.26-3.14-4.25-.99-.74-1.6-1.45-1.85-2.13-.25-.67-.06-1.14.55-1.38.25-.37.83-.25,1.75.37.92.62,1.91,1.29,2.96,2.03,1.04.74,1.82.99,2.31.74.86,0,2.09.68,3.69,2.03Z"/><path class="cls-1" d="M454.88,129.04c3.69-2.28,5.97-2.98,6.84-2.12,1.97.86,1.91,4.56-.18,11.08-.49,1.48-.74,2.43-.74,2.86s.19.96.55,1.57c.86,1.6,1.02,3.02.46,4.25-.56,1.23-1.63,1.97-3.23,2.22-.86.37-1.48.74-1.85,1.11-.37.37-.8,1.05-1.29,2.03-1.6,3.45-3.69,7.11-6.28,10.99-2.59,3.88-4.5,6.31-5.73,7.3-1.85,1.36-3.54,1.91-5.08,1.66-1.54-.24-2.31-1.17-2.31-2.77,0-.86.15-1.51.46-1.94.31-.43,1.08-.89,2.31-1.38.98-.37,1.94-1.14,2.86-2.31.92-1.17,1.82-2.61,2.68-4.34.86-1.72,1.54-2.95,2.03-3.69,1.11-1.48,1.57-2.37,1.38-2.68-.18-.31-1.57-.28-4.16.09-1.48.49-2.47.49-2.96,0-.49-.49-.62-1.54-.37-3.14,0-.49.03-.89.09-1.2.06-.31.19-.61.37-.92.19-.31.28-.52.28-.65s.19-.24.55-.37c.37-.12.61-.21.74-.28.12-.06.49-.15,1.11-.28.61-.12,1.05-.24,1.29-.37,5.66-1.11,9.17-3.69,10.53-7.76,0-.86-1.29-.55-3.88.92-.49.25-.92.49-1.29.74-1.11.86-2.8,1.73-5.08,2.59-2.28.86-3.91,1.29-4.9,1.29-2.71,0-3.2-2.03-1.48-6.1.49-1.11,1.11-2.4,1.85-3.88.98-1.97,1.94-3.72,2.86-5.26.92-1.54,1.57-2.74,1.94-3.6.37-.86,1.54-1.91,3.51-3.14,1.97-1.23,3.26-1.29,3.88-.19,1.11,1.36,1.32,2.65.65,3.88-.68,1.23-1.6,2.62-2.77,4.16-1.17,1.54-1.63,2.49-1.38,2.86.12.12,2.03-.95,5.73-3.23ZM452.47,70.39c2.22-.61,3.57-.98,4.06-1.11.86,0,1.85-.24,2.95-.74,1.11-.49,1.66-.98,1.66-1.48s-.99-1.66-2.95-3.51c-2.71-2.83-3.69-5.23-2.96-7.2.24-.74.86-1.39,1.85-1.94.98-.55,1.78-.71,2.4-.46.61.25,1.85,1.54,3.69,3.88,1.85,2.34,2.96,3.63,3.32,3.88,1.6,1.73,2.46,1.11,2.59-1.85,0-.61-.06-1.48-.18-2.59,0-1.85.06-3.08.18-3.69,0-.61.12-2.96.37-7.02.25-3.2.52-5.26.83-6.19.31-.92.95-1.57,1.94-1.94,1.85-.74,3.2-.43,4.06.92.86,1.36.98,3.39.37,6.1-.49,1.6-.77,4.43-.83,8.5-.06,4.06.09,6.28.46,6.65.37.37.98.25,1.85-.37.74-.49,2.06-2.68,3.97-6.56,1.91-3.88,3.05-6.62,3.42-8.22.24-1.72.65-2.92,1.2-3.6.55-.68,1.38-1.02,2.49-1.02.74,0,1.48.4,2.22,1.2.74.8,1.11,1.57,1.11,2.31,0,.62-.37,1.97-1.11,4.07-1.11,2.83-1.42,4.28-.92,4.34.49.06,1.6-.77,3.33-2.49,1.6-1.72,2.92-2.55,3.97-2.49,1.05.06,2.06,1.01,3.05,2.86.49.86.34,1.79-.46,2.77-.8.99-2.49,2.34-5.08,4.06-6.9,4.43-10.84,7.08-11.82,7.94-.99.86-2.22,2.59-3.69,5.17-2.1,3.82-2.83,5.73-2.22,5.73.74,0,3.17.43,7.3,1.29,4.12.86,6.93,1.54,8.4,2.03,4.06,1.23,6.62,2.22,7.67,2.95,1.04.74,1.63,1.97,1.75,3.69.49,1.85-.16,3.02-1.94,3.51-1.79.49-3.17.06-4.16-1.29-.99-1.11-3.05-2.09-6.19-2.96-3.14-.86-6.68-1.41-10.62-1.66-2.71-.25-4.37-.12-4.99.37-.62.49-.99,2.1-1.11,4.8,0,.62-.12,2.25-.37,4.9-.25,2.65-.46,5.14-.65,7.48-.18,2.34-.22,3.94-.09,4.8.12.86.09,2.03-.09,3.51-.18,1.48-.43,3.08-.74,4.8-.31,1.73-.92,3.08-1.85,4.06-.92.99-2,1.23-3.23.74-.62-.24-1.11-.89-1.48-1.94-.37-1.04-1.05-3.79-2.03-8.22-.62-2.46-.83-4.09-.65-4.9.19-.8.83-1.08,1.94-.83.74.12,1.23-.03,1.48-.46.24-.43.31-1.08.19-1.94-.12-.86-.06-1.97.19-3.33.12-3.2,0-4.8-.37-4.8s-2.03,1.54-4.99,4.62c-4.31,4.43-7.39,6.65-9.24,6.65-2.1,0-2.83-1.17-2.22-3.51.62-2.34,2.09-4,4.43-4.99,2.22-.98,5.73-5.11,10.53-12.38,2.34-3.57,3.45-6.03,3.32-7.39,0-1.23-.37-1.91-1.11-2.03-.62-.12-3.63.74-9.05,2.59-5.05,1.6-8.5,2.56-10.34,2.86-1.85.31-3.2.09-4.06-.65-.99-.74-1.45-1.72-1.39-2.96.06-1.23.71-2.03,1.94-2.4.61-.25,1.23-.65,1.85-1.2.61-.55,1.41-.83,2.4-.83.74,0,2.22-.31,4.43-.92ZM512.42,136.34c-4.13,2.22-6.56,4.43-7.3,6.65-.74,1.85-1.23,4.59-1.48,8.22-.25,3.64-.12,6.44.37,8.41.49,1.97.25,4.68-.74,8.13-.99,3.45-1.97,5.3-2.96,5.54-1.6,1.11-2.95,1.05-4.06-.19-.49-.49-.74-1.26-.74-2.31s.19-3.66.55-7.85c.86-11.08,1.11-16.87.74-17.36-.49-.12-1.45,0-2.86.37-1.42.37-2.9.74-4.43,1.11-1.54.37-3.02.65-4.43.83-1.42.19-2.56-.09-3.42-.83-.86-.74-1.23-1.91-1.11-3.51-.25-.12.09-.83,1.01-2.13.92-1.29,2.03-2.8,3.33-4.53,1.29-1.72,2.12-3.02,2.49-3.88.12-.37.52-1.23,1.2-2.59.67-1.35,1.2-2.5,1.57-3.42.37-.92.37-1.63,0-2.13-.12,0-1.82.46-5.08,1.38-3.27.92-5.39,1.39-6.37,1.39-1.97.25-3.27.12-3.88-.37-.62-.49-.92-1.6-.92-3.32,0-1.6.21-2.59.65-2.96.43-.37,1.45-.61,3.05-.74,1.97,0,5.42-.71,10.34-2.13,4.92-1.41,7.88-2.49,8.87-3.23.98-.86,1.6-2.22,1.85-4.06-.25-2.09.34-3.35,1.75-3.79,1.41-.43,2.74-.03,3.97,1.2.61.62.92,4.68.92,12.19,0,1.73-.06,3.94-.19,6.65-.25,3.33-.12,5.14.37,5.45.49.31,2.28-.77,5.36-3.23,2.59-2.22,4.49-3.45,5.73-3.69,1.23-.24,2.28.31,3.14,1.66.61.99.67,2.1.18,3.32-.86,1.6-3.36,3.51-7.48,5.73ZM494.69,132.83c-1.79,3.32-2.68,5.17-2.68,5.54,0,.62,1.23.31,3.69-.92l2.59-1.29v-4.06c0-2.83-.19-4.25-.56-4.25-.25,0-1.26,1.66-3.05,4.99ZM556.59,127.74c-.8.25-1.6.31-2.4.19-.8-.12-1.54-.21-2.22-.28-.68-.06-1.45-.4-2.31-1.02-.86-.61-1.54-1.04-2.03-1.29-.49-.25-1.17-.83-2.03-1.76-.86-.92-1.45-1.51-1.75-1.75-.31-.24-.92-.89-1.85-1.94-.92-1.05-1.45-1.63-1.57-1.75-.74-.25-1.11,1.91-1.11,6.46-.99,19.58-1.54,35.35-1.66,47.29-.12,17-.37,25.98-.74,26.97-.74,1.97-1.88,3.2-3.42,3.69-1.54.49-2.74-.25-3.6-2.22-.25-.62-.43-1.14-.56-1.57-.12-.43-.16-.89-.09-1.38.06-.49.09-.86.09-1.11s.09-.71.28-1.39c.19-.68.34-1.2.46-1.57.25-2.96.52-10.9.83-23.83.31-12.93.65-21.49,1.02-25.68.49-6.9.74-17.24.74-31.03l.19-20.88,1.48-1.48c2.22-1.97,3.94-1.85,5.17.37,1.23,2.22,1.85,6.65,1.85,13.3.12,4.8,1.17,8.78,3.14,11.92,1.97,3.14,4.62,5.02,7.94,5.63,2.83.49,5.23-.92,7.2-4.25,1.97-3.32,2.96-6.59,2.96-9.79,0-1.72-.59-2.77-1.76-3.14-1.17-.37-3.6-.19-7.3.55-6.04,1.11-9.67.56-10.9-1.66-.74-2.34.92-6.96,4.99-13.85,2.09-3.45,3.32-5.54,3.69-6.28.37-.74.31-1.35-.18-1.85-.49-.49-1.6-.68-3.33-.55-8.25.86-12.81.99-13.67.37-.49-.37-.71-1.66-.65-3.88.06-2.22.46-3.32,1.2-3.32.61-.49,1.6-.61,2.96-.37,1.23.25,4.43.31,9.61.18,4.06,0,6.71.09,7.94.28,1.23.19,2.22.83,2.96,1.94,1.6,1.85.86,5.42-2.22,10.71-1.85,3.45-3.14,5.67-3.88,6.65-.49.62-.86,1.45-1.11,2.5-.25,1.05-.22,1.73.09,2.03.31.31,2.31.22,6-.28l5.54-.74,1.85,1.29c2.83,2.47,4.25,5.98,4.25,10.53,0,3.2-.99,6.65-2.96,10.35-1.97,3.69-4.19,6.16-6.65,7.39-.86.62-1.7,1.05-2.49,1.29Z"/><path class="cls-1" d="M586.78,140.65h1.18l3.27,6.29.95,2.05h.06c-.06-1.01-.15-2.12-.15-3.16v-5.18h1.08v9.97h-1.16l-3.27-6.3-.97-2.05h-.05c.05,1.01.14,2.07.14,3.12v5.24h-1.08v-9.97Z"/><path class="cls-1" d="M597.46,146.94c0-2.39,1.46-3.89,3-3.89,1.69,0,2.65,1.36,2.65,3.47,0,.27-.03.53-.05.71h-4.48c.07,1.58.94,2.58,2.2,2.58.65,0,1.18-.22,1.67-.58l.4.82c-.59.42-1.3.76-2.2.76-1.76,0-3.18-1.43-3.18-3.86ZM602.13,146.34c0-1.5-.61-2.3-1.65-2.3-.94,0-1.77.84-1.91,2.3h3.56Z"/><path class="cls-1" d="M606.46,143.24h1.14l.99,4.27c.14.71.27,1.37.39,2.07h.06c.15-.69.28-1.37.45-2.07l1.03-4.27h1.09l1.04,4.27c.16.71.31,1.37.47,2.07h.05c.15-.69.27-1.36.42-2.07l.98-4.27h1.05l-1.79,7.39h-1.35l-.97-3.99c-.17-.69-.29-1.37-.45-2.12h-.06c-.15.75-.28,1.44-.45,2.15l-.93,3.96h-1.31l-1.85-7.39Z"/><path class="cls-1" d="M624.8,140.65h1.14v8.9h3.92v1.07h-5.06v-9.97Z"/><path class="cls-1" d="M633.58,140.91c0-.5.33-.8.77-.8s.77.3.77.8c0,.46-.33.8-.77.8s-.77-.34-.77-.8ZM633.79,143.24h1.12v7.39h-1.12v-7.39Z"/><path class="cls-1" d="M642.59,140.8c-.25-.12-.51-.19-.75-.19-.64,0-.94.5-.94,1.46v1.17h1.41v1.01h-1.41v6.38h-1.11v-6.38h-.91v-.94l.91-.07v-1.18c0-1.5.61-2.44,1.93-2.44.41,0,.8.1,1.12.24l-.24.94Z"/><path class="cls-1" d="M645.39,146.94c0-2.39,1.46-3.89,3-3.89,1.69,0,2.65,1.36,2.65,3.47,0,.27-.02.53-.05.71h-4.48c.07,1.58.94,2.58,2.2,2.58.65,0,1.18-.22,1.67-.58l.4.82c-.59.42-1.3.76-2.2.76-1.76,0-3.18-1.43-3.18-3.86ZM650.06,146.34c0-1.5-.61-2.3-1.65-2.3-.94,0-1.77.84-1.91,2.3h3.56Z"/><path class="cls-1" d="M586.78,163.6h1.14v5.01h.04l3.75-5.01h1.27l-2.8,3.8,3.24,6.18h-1.27l-2.68-5.2-1.54,2.04v3.16h-1.14v-9.97Z"/><path class="cls-1" d="M597.03,166.19h.92l.1,1.06h.04c.64-.69,1.32-1.25,2.23-1.25,1.39,0,2.03,1.01,2.03,2.9v4.68h-1.11v-4.52c0-1.39-.38-1.97-1.26-1.97-.69,0-1.15.38-1.82,1.13v5.36h-1.11v-7.39Z"/><path class="cls-1" d="M606.46,169.89c0-2.46,1.46-3.89,3.09-3.89s3.09,1.43,3.09,3.89-1.46,3.86-3.09,3.86-3.09-1.41-3.09-3.86ZM611.48,169.89c0-1.7-.78-2.86-1.94-2.86s-1.92,1.16-1.92,2.86.77,2.83,1.92,2.83,1.94-1.13,1.94-2.83Z"/><path class="cls-1" d="M615.98,166.19h1.14l.99,4.27c.14.71.27,1.37.39,2.07h.06c.15-.69.28-1.37.45-2.07l1.03-4.27h1.09l1.04,4.27c.16.71.31,1.37.47,2.07h.05c.15-.69.27-1.36.42-2.07l.98-4.27h1.05l-1.79,7.39h-1.35l-.97-3.99c-.17-.69-.29-1.37-.45-2.12h-.06c-.15.75-.28,1.44-.45,2.15l-.93,3.96h-1.31l-1.85-7.39Z"/><path class="cls-1" d="M588.23,192.65l-2.69-6.1h1.21l1.15,2.82c.29.73.56,1.43.88,2.18h.05c.32-.75.62-1.44.89-2.18l1.16-2.82h1.18l-2.69,6.1v3.88h-1.14v-3.88Z"/><path class="cls-1" d="M594.56,192.84c0-2.46,1.46-3.89,3.09-3.89s3.09,1.43,3.09,3.89-1.46,3.86-3.09,3.86-3.09-1.42-3.09-3.86ZM599.58,192.84c0-1.7-.78-2.86-1.93-2.86s-1.92,1.16-1.92,2.86.77,2.83,1.92,2.83,1.93-1.13,1.93-2.83Z"/><path class="cls-1" d="M604.84,193.82v-4.68h1.11v4.53c0,1.37.37,1.96,1.25,1.96.69,0,1.16-.37,1.8-1.25v-5.24h1.12v7.39h-.93l-.09-1.16h-.04c-.62.8-1.29,1.33-2.2,1.33-1.4,0-2.02-1.01-2.02-2.89Z"/><path class="cls-1" d="M614.8,189.14h.92l.1,1.35h.04c.47-.94,1.14-1.54,1.89-1.54.29,0,.5.04.71.16l-.21,1.09c-.22-.1-.38-.12-.65-.12-.55,0-1.24.44-1.68,1.7v4.75h-1.12v-7.39Z"/><path class="cls-1" d="M627.29,186.55h1.14v8.9h3.92v1.08h-5.06v-9.97Z"/><path class="cls-1" d="M636.06,186.81c0-.5.33-.8.77-.8s.77.3.77.8c0,.46-.33.8-.77.8s-.77-.34-.77-.8ZM636.27,189.14h1.12v7.39h-1.12v-7.39Z"/><path class="cls-1" d="M645.07,186.7c-.25-.12-.51-.19-.75-.19-.64,0-.94.5-.94,1.45v1.17h1.41v1.01h-1.41v6.38h-1.11v-6.38h-.91v-.94l.91-.07v-1.18c0-1.5.61-2.44,1.93-2.44.41,0,.8.1,1.12.24l-.24.94Z"/><path class="cls-1" d="M647.87,192.84c0-2.39,1.46-3.89,3-3.89,1.69,0,2.65,1.36,2.65,3.47,0,.27-.02.53-.05.71h-4.48c.07,1.58.94,2.59,2.2,2.59.65,0,1.18-.22,1.67-.59l.4.82c-.59.42-1.3.76-2.2.76-1.76,0-3.18-1.43-3.18-3.86ZM652.54,192.24c0-1.5-.61-2.3-1.65-2.3-.94,0-1.77.84-1.91,2.3h3.56Z"/><path class="cls-1" d="M64.04,11.5s-.02.41-.04.57c-.37,5.24-.71,7.24-1.39,7.96-.35.41-.74.52-1.39.54-.63.05-1.92.02-3.25-.09-.02-.36-.14-.77-.35-1.09,1.43.16,2.82.16,3.27.16s.7-.02.9-.25c.53-.5.86-2.31,1.19-6.78h-6.95l-1,.02c.37-1.59.82-4.17,1.08-6.1h6.91V2.2h-7.81v-1.04h8.77v6.33h-7.03c-.25,1.36-.47,2.84-.72,4.02h7.8ZM70.29.36v20.37h-.98V.36h.98Z"/><path class="cls-1" d="M122.87,7.49c-.7-1.31-2.1-3.29-3.41-4.92-1.06,2.36-2.43,4.56-3.74,6.01-.14-.32-.39-.75-.61-1,1.68-1.72,3.45-4.72,4.43-7.58l.74.52c-.14.36-.27.75-.41,1.11,1.37,1.61,2.92,3.7,3.62,4.99l-.61.86ZM123.1,11.14c-.76,2.25-2.15,4.9-3.25,6.49.63.73,1.18,1.43,1.59,2.06l-.67.77c-.88-1.43-2.66-3.49-4.15-4.83l.63-.68c.59.54,1.27,1.2,1.9,1.88.92-1.25,2.06-3.38,2.72-5.1h-5.92v-1.02h6.35l.16-.07.63.5ZM117.11,8.21v-1h4.9v1h-4.9ZM127.53,17.76c-.96,1.16-2.51,2.34-3.9,3.04-.12-.25-.45-.61-.67-.79,1.41-.66,2.92-1.81,3.64-2.79l.94.54ZM127.65,4.88c.16-.75.39-1.75.53-2.54h-4.43v-1h9.91v1h-4.41c-.2.86-.43,1.79-.63,2.54h4.45v11.68h-8.54V4.88h3.13ZM132.13,5.81h-6.7v2.65h6.7v-2.65ZM132.13,9.35h-6.7v2.7h6.7v-2.7ZM132.13,12.93h-6.7v2.7h6.7v-2.7ZM130.57,17.31c1.14.79,2.59,2,3.33,2.81l-.8.66c-.69-.82-2.12-2.06-3.29-2.93l.76-.54Z"/><path class="cls-1" d="M194.99,6.78v1h-18.35v-1h8.58v-2.99h-6.46v-1.02h6.46V.14h1v2.63h6.58v1.02h-6.58v2.99h8.76ZM186.22,15.63h8.15v1h-8.15v4.13h-1v-4.13h-8.03v-1h8.03v-3.11h-6.97v-1h3.74c-.22-.88-.8-2.25-1.35-3.29l.92-.32c.57,1,1.16,2.38,1.37,3.22l-.88.39h6.35c.55-1.02,1.21-2.54,1.53-3.58l1.04.34c-.49,1.07-1.06,2.29-1.57,3.24h4v1h-7.19v3.11Z"/><path class="cls-1" d="M244.87,4.83c-.61,1.7-1.51,3.38-2.53,4.88.69.66,2.33,2.36,2.74,2.81l-.57.91c-.47-.61-1.72-2-2.49-2.86v10.12h-.96v-9.28c-1.02,1.22-2.1,2.29-3.15,3.11-.12-.25-.39-.7-.57-.88,2.35-1.77,4.94-4.88,6.29-8.14h-5.58v-1.02h6.07l.2-.07.55.43ZM241.38,3.97c-.33-.84-.98-2.25-1.57-3.24l.8-.36c.59,1.02,1.27,2.34,1.59,3.18l-.82.43ZM255.95,1.38v.98h-10.71v-.98h10.71ZM245.32,10.96h10.46v9.71h-.94v-1.07h-8.6v1.16h-.92v-9.8ZM246.24,11.93v2.81h3.72v-2.81h-3.72ZM249.96,18.62v-2.93h-3.72v2.93h3.72ZM254.82,4.26v4.92h-8.42v-4.92h8.42ZM253.88,5.22h-6.56v3.04h6.56v-3.04ZM254.84,11.93h-3.96v2.81h3.96v-2.81ZM254.84,18.62v-2.93h-3.96v2.93h3.96Z"/><path class="cls-1" d="M304.44,12.59v8.1h-.96v-8.1h-4.25v-1h4.25v-2.74h-4.33v-.98h5.74c.43-1.16.94-2.86,1.23-4.02l.94.27c-.37,1.2-.82,2.65-1.25,3.74h2.84v.98h-4.21v2.74h4.07v1h-4.07ZM302.13,14.29c-.49,1.66-1.31,3.38-2.15,4.51-.14-.14-.51-.45-.74-.57.86-1.11,1.57-2.65,2.02-4.17l.86.23ZM308.34,3.61h-8.89v-.98h4.35c-.29-.7-.71-1.57-1.06-2.22l.94-.3c.45.79.96,1.79,1.23,2.52h3.43v.98ZM301.83,7.62c-.1-.93-.45-2.43-.88-3.52l.82-.2c.45,1.09.84,2.54.94,3.45l-.88.27ZM306.4,14c.69,1.2,1.43,2.74,1.76,3.77l-.76.45c-.33-1.04-1.06-2.65-1.72-3.86l.72-.36ZM317.54,8.94h-2.45v11.68h-.96v-11.68h-3.35v1.11c0,3.2-.27,7.55-2.23,10.55-.14-.23-.51-.54-.74-.68,1.86-2.84,2.04-6.81,2.04-9.87V2.38c2.31-.41,5.03-1.04,6.48-1.68l.86.82c-1.68.66-4.17,1.25-6.42,1.59v4.81h6.76v1.02Z"/><path class="cls-1" d="M366.46,11.89c-.33-.73-1.16-2.36-1.78-3.52v12.34h-.92v-12.59c-.78,2.9-1.88,5.92-2.98,7.62-.12-.32-.39-.75-.59-.98,1.31-1.95,2.72-5.81,3.39-9.1h-2.9v-1.04h3.09V.18h.92v4.45h2.37v1.04h-2.37v1.31c.53.79,2.06,3.4,2.39,4.06l-.61.84ZM370.24,15.9c-.78,1.52-1.96,3.04-3.04,4.06-.18-.16-.55-.43-.82-.57,1.16-.98,2.29-2.36,2.98-3.79l.88.29ZM370.71,2.34h-3.66v-.98h11.32v.98h-3.74v1.81h3.39v5.17h-10.46v-5.17h3.15v-1.81ZM373.08,14.63v6.1h-.92v-6.1h-5.05v-.95h11.4v.95h-5.43ZM368.45,8.39h2.27v-3.31h-2.27v3.31ZM368.49,11.7v-.93h8.52v.93h-8.52ZM373.82,2.34h-2.29v1.81h2.29v-1.81ZM371.53,8.39h2.29v-3.31h-2.29v3.31ZM374.64,5.08v3.31h2.49v-3.31h-2.49ZM375.66,15.56c1.14,1.18,2.37,2.77,2.92,3.83l-.78.54c-.55-1.09-1.76-2.72-2.86-3.88l.72-.5Z"/><path class="cls-1" d="M425.03,6.56c-.78-.5-2.27-1.16-3.43-1.54l.47-.84c1.16.36,2.64.98,3.41,1.45l-.45.93ZM439.93,15.99h-8.6v4.79h-.98v-4.79h-8.54v-1.02h8.54v-1.84h.98v1.84h8.6v1.02ZM422.19,12.66c1.1-1.11,2.68-2.97,3.94-4.7l.55.77c-1.14,1.56-2.57,3.38-3.8,4.79l-.69-.86ZM426.5,2.99c-.76-.57-2.19-1.36-3.35-1.86l.47-.77c1.16.45,2.62,1.18,3.37,1.75l-.49.88ZM428.04,4.72c-.51.66-1.08,1.27-1.61,1.77-.16-.2-.57-.52-.8-.7,1.63-1.41,3.17-3.52,4.09-5.74l.96.3c-.35.79-.78,1.59-1.21,2.34h3.98c-.26-.61-.63-1.36-.96-1.93l.92-.32c.41.68.88,1.59,1.12,2.25h4.37v.95h-4.74v2.04h4.23v.86h-4.23v2.02h4.29v.86h-4.29v2.13h5.11v.95h-10.28v1.04h-.96V4.72ZM433.23,3.63h-4.23v2.04h4.23v-2.04ZM433.23,6.53h-4.23v2.02h4.23v-2.02ZM433.23,9.41h-4.23v2.13h4.23v-2.13Z"/></g></svg>