<?xml version="1.0" encoding="UTF-8"?><svg id="_圖層_2" xmlns="http://www.w3.org/2000/svg" xmlns:xlink="http://www.w3.org/1999/xlink" viewBox="0 0 44 49"><defs><style>.cls-1{fill:none;}.cls-2{fill:#fff;filter:url(#drop-shadow-1);}</style><filter id="drop-shadow-1" x="0" y="0" width="44" height="49" filterUnits="userSpaceOnUse"><feOffset dx="0" dy="0"/><feGaussianBlur result="blur" stdDeviation="3"/><feFlood flood-color="#003518" flood-opacity=".5"/><feComposite in2="blur" operator="in"/><feComposite in="SourceGraphic"/></filter></defs><g id="_設計"><rect class="cls-1" x="4.91" y="6.94" width="35" height="35"/><path class="cls-2" d="M17.04,9.89c.81.31,1.13.99,1.31,1.75.35,1.53.68,3.06,1.01,4.59.05.23.06.47.07.71.01.73-.33,1.23-1.03,1.48-.48.17-.97.34-1.46.49-.48.14-.74.47-.85.93-.15.62-.13,1.22.08,1.83,1.18,3.46,3.22,6.32,5.98,8.68.56.48,1.19.89,1.83,1.26.4.24.89.29,1.37.24.34-.03.62-.19.82-.48.27-.4.55-.78.82-1.18.55-.8,1.19-1.01,2.1-.62.49.21.95.48,1.42.73.88.48,1.76.96,2.63,1.45.22.12.44.26.66.4.59.39,1.06.86,1.12,1.62-.03.19-.06.39-.08.58-.19.44-.35.9-.59,1.32-1.03,1.87-2.6,3.01-4.73,3.31-.42.06-.86.04-1.29.06-.33-.05-.67-.1-1-.15-.4-.12-.8-.23-1.19-.37-1.96-.71-3.62-1.9-5.16-3.27-1.85-1.64-3.45-3.5-4.93-5.47-1.82-2.41-3.47-4.92-4.66-7.7-.66-1.55-1.16-3.14-1.29-4.83-.04-.49-.03-.99-.04-1.48.05-.33.1-.67.15-1,.03-.07.06-.15.08-.22.66-2.44,2.26-3.93,4.68-4.56.52-.14,1.08-.15,1.62-.22.19.03.39.06.58.08Z"/></g></svg>